[IMG]http://www.shotpix.com/images/04933849029738883830.jpg[/IMG]

General
Complete name                            : Icona Pop Feat. Charli XCX - I Love It [Music Video] 720p [Sbyky].mp4
Format                                   : MPEG-4
Format profile                           : Base Media / Version 2
Codec ID                                 : mp42
File size                                : 60.0 MiB
Duration                                 : 2mn 59s
Overall bit rate mode                    : Variable
Overall bit rate                         : 2 799 Kbps
Encoded date                             : UTC 2012-05-02 16:46:56
Tagged date                              : UTC 2012-05-02 16:46:56

Video
ID                                       : 1
Format                                   : AVC
Format/Info                              : Advanced Video Codec
Format profile                           : High@L3.1
Format settings, CABAC                   : Yes
Format settings, ReFrames                : 1 frame
Codec ID                                 : avc1
Codec ID/Info                            : Advanced Video Coding
Duration                                 : 2mn 59s
Bit rate                                 : 2 648 Kbps
Maximum bit rate                         : 8 357 Kbps
Width                                    : 1 280 pixels
Height                                   : 720 pixels
Display aspect ratio                     : 16:9
Frame rate mode                          : Constant
Frame rate                               : 25.000 fps
Color space                              : YUV
Chroma subsampling                       : 4:2:0
Bit depth                                : 8 bits
Scan type                                : Progressive
Bits/(Pixel*Frame)                       : 0.115
Stream size                              : 56.8 MiB (95%)
Tagged date                              : UTC 2012-05-02 16:46:57

Audio
ID                                       : 2
Format                                   : AAC
Format/Info                              : Advanced Audio Codec
Format profile                           : LC
Codec ID                                 : 40
Duration                                 : 2mn 59s
Bit rate mode                            : Variable
Bit rate                                 : 148 Kbps
Maximum bit rate                         : 231 Kbps
Channel(s)                               : 2 channels
Channel positions                        : Front: L R
Sampling rate                            : 44.1 KHz
Compression mode                         : Lossy
Stream size                              : 3.18 MiB (5%)
Title                                    : IsoMedia File Produced by Google, 5-11-2011
Encoded date                             : UTC 2012-05-02 16:46:57
Tagged date                              : UTC 2012-05-02 16:46:57

Shared By Sbyky
[IMG]http://www.shotpix.com/images/93673952718153918459.gif[/IMG]
[IMG]http://www.shotpix.com/images/30389343628541615007.gif[/IMG]